<svg width="23" height="12" viewBox="0 0 23 12" fill="none" xmlns="http://www.w3.org/2000/svg">
<path d="M6 7.7C5.53333 7.7 5.13333 7.53333 4.8 7.2C4.46667 6.86667 4.3 6.46667 4.3 6C4.3 5.53333 4.46667 5.13333 4.8 4.8C5.13333 4.46667 5.53333 4.3 6 4.3C6.46667 4.3 6.86667 4.46667 7.2 4.8C7.53333 5.13333 7.7 5.53333 7.7 6C7.7 6.46667 7.53333 6.86667 7.2 7.2C6.86667 7.53333 6.46667 7.7 6 7.7ZM6 12C4.33333 12 2.91667 11.4167 1.75 10.25C0.583333 9.08333 0 7.66667 0 6C0 4.33333 0.583333 2.91667 1.75 1.75C2.91667 0.583333 4.33333 0 6 0C7.2 0 8.25 0.283333 9.15 0.85C10.05 1.41667 10.7583 2.275 11.275 3.425H20.175L23 6.25L18.825 10.075L16.625 8.475L14.425 10.075L12.55 8.575H11.275C10.8583 9.575 10.2042 10.3958 9.3125 11.0375C8.42083 11.6792 7.31667 12 6 12ZM6 10.5C6.96667 10.5 7.85833 10.1792 8.675 9.5375C9.49167 8.89583 10.0167 8.075 10.25 7.075H13.1L14.45 8.2L16.65 6.625L18.7 8.175L20.825 6.2L19.55 4.925H10.25C10.05 3.99167 9.55 3.1875 8.75 2.5125C7.95 1.8375 7.03333 1.5 6 1.5C4.75 1.5 3.6875 1.9375 2.8125 2.8125C1.9375 3.6875 1.5 4.75 1.5 6C1.5 7.25 1.9375 8.3125 2.8125 9.1875C3.6875 10.0625 4.75 10.5 6 10.5Z" fill="#555555"/>
</svg>
