<svg width="32" height="33" viewBox="0 0 32 33" fill="none" xmlns="http://www.w3.org/2000/svg">
<g id="Password">
<path id="Vector" d="M6 7.5V25.5C6 25.7652 5.89464 26.0196 5.70711 26.2071C5.51957 26.3946 5.26522 26.5 5 26.5C4.73478 26.5 4.48043 26.3946 4.29289 26.2071C4.10536 26.0196 4 25.7652 4 25.5V7.5C4 7.23478 4.10536 6.98043 4.29289 6.79289C4.48043 6.60536 4.73478 6.5 5 6.5C5.26522 6.5 5.51957 6.60536 5.70711 6.79289C5.89464 6.98043 6 7.23478 6 7.5ZM16.5 14.3125L14 15.125V12.5C14 12.2348 13.8946 11.9804 13.7071 11.7929C13.5196 11.6054 13.2652 11.5 13 11.5C12.7348 11.5 12.4804 11.6054 12.2929 11.7929C12.1054 11.9804 12 12.2348 12 12.5V15.125L9.5 14.3125C9.24771 14.2296 8.97284 14.2504 8.73584 14.3701C8.49884 14.4899 8.31913 14.699 8.23625 14.9513C8.15337 15.2035 8.17411 15.4784 8.29389 15.7154C8.41368 15.9524 8.62271 16.1321 8.875 16.215L11.375 17.0263L9.8325 19.1513C9.75098 19.2572 9.69153 19.3783 9.65764 19.5076C9.62376 19.6369 9.61613 19.7717 9.63522 19.904C9.65431 20.0363 9.69972 20.1634 9.76877 20.2778C9.83782 20.3922 9.92911 20.4917 10.0372 20.5702C10.1454 20.6488 10.2682 20.7048 10.3983 20.7351C10.5285 20.7654 10.6634 20.7693 10.7951 20.7466C10.9268 20.7238 11.0527 20.6749 11.1651 20.6027C11.2776 20.5305 11.3745 20.4365 11.45 20.3263L12.9925 18.2013L14.535 20.3263C14.6105 20.4365 14.7074 20.5305 14.8199 20.6027C14.9323 20.6749 15.0582 20.7238 15.1899 20.7466C15.3216 20.7693 15.4565 20.7654 15.5867 20.7351C15.7168 20.7048 15.8396 20.6488 15.9478 20.5702C16.0559 20.4917 16.1472 20.3922 16.2162 20.2778C16.2853 20.1634 16.3307 20.0363 16.3498 19.904C16.3689 19.7717 16.3612 19.6369 16.3274 19.5076C16.2935 19.3783 16.234 19.2572 16.1525 19.1513L14.61 17.0263L17.11 16.215C17.3511 16.1253 17.5484 15.9461 17.6609 15.7147C17.7733 15.4833 17.7922 15.2174 17.7136 14.9724C17.6351 14.7274 17.4651 14.5221 17.2391 14.3992C17.013 14.2763 16.7483 14.2453 16.5 14.3125ZM29.75 14.955C29.668 14.705 29.4909 14.4974 29.2569 14.3771C29.0229 14.2569 28.751 14.2336 28.5 14.3125L26 15.125V12.5C26 12.2348 25.8946 11.9804 25.7071 11.7929C25.5196 11.6054 25.2652 11.5 25 11.5C24.7348 11.5 24.4804 11.6054 24.2929 11.7929C24.1054 11.9804 24 12.2348 24 12.5V15.125L21.5 14.3138C21.3751 14.2731 21.2434 14.2575 21.1124 14.2678C20.9815 14.278 20.8538 14.314 20.7368 14.3736C20.6197 14.4332 20.5155 14.5153 20.4302 14.6151C20.3448 14.715 20.28 14.8307 20.2394 14.9556C20.1987 15.0805 20.1831 15.2122 20.1934 15.3432C20.2037 15.4742 20.2396 15.6018 20.2992 15.7189C20.3588 15.8359 20.4409 15.9401 20.5408 16.0254C20.6406 16.1108 20.7563 16.1756 20.8813 16.2163L23.3813 17.0275L21.8388 19.1525C21.7572 19.2584 21.6978 19.3796 21.6639 19.5089C21.63 19.6382 21.6224 19.7729 21.6415 19.9052C21.6606 20.0375 21.706 20.1646 21.775 20.2791C21.8441 20.3935 21.9354 20.4929 22.0435 20.5715C22.1516 20.65 22.2744 20.7061 22.4046 20.7364C22.5348 20.7667 22.6697 20.7706 22.8014 20.7478C22.9331 20.7251 23.0589 20.6762 23.1714 20.604C23.2839 20.5318 23.3807 20.4378 23.4562 20.3275L24.9988 18.2025L26.5413 20.3275C26.6168 20.4378 26.7136 20.5318 26.8261 20.604C26.9386 20.6762 27.0644 20.7251 27.1961 20.7478C27.3278 20.7706 27.4627 20.7667 27.5929 20.7364C27.7231 20.7061 27.8459 20.65 27.954 20.5715C28.0621 20.4929 28.1534 20.3935 28.2225 20.2791C28.2915 20.1646 28.3369 20.0375 28.356 19.9052C28.3751 19.7729 28.3675 19.6382 28.3336 19.5089C28.2997 19.3796 28.2403 19.2584 28.1588 19.1525L26.6162 17.0275L29.1162 16.2163C29.3672 16.1326 29.5749 15.9529 29.6936 15.7165C29.8124 15.4801 29.8327 15.2063 29.75 14.955Z" fill="black"/>
</g>
</svg>
