<svg width="32" height="33" viewBox="0 0 32 33" fill="none" xmlns="http://www.w3.org/2000/svg">
<g id="User">
<path id="Vector" d="M28.8651 27C26.9613 23.7087 24.0276 21.3487 20.6038 20.23C22.2974 19.2218 23.6132 17.6856 24.3491 15.8572C25.0851 14.0289 25.2005 12.0095 24.6777 10.1092C24.1548 8.20889 23.0227 6.53274 21.4551 5.33815C19.8874 4.14357 17.971 3.4966 16.0001 3.4966C14.0292 3.4966 12.1128 4.14357 10.5451 5.33815C8.9775 6.53274 7.84534 8.20889 7.32252 10.1092C6.7997 12.0095 6.91513 14.0289 7.65108 15.8572C8.38703 17.6856 9.7028 19.2218 11.3963 20.23C7.97259 21.3475 5.03884 23.7075 3.13509 27C3.06528 27.1138 3.01897 27.2405 2.99891 27.3725C2.97884 27.5045 2.98541 27.6392 3.01825 27.7687C3.05108 27.8981 3.10951 28.0197 3.19008 28.1262C3.27066 28.2327 3.37174 28.3219 3.48738 28.3887C3.60301 28.4555 3.73085 28.4985 3.86335 28.5151C3.99586 28.5316 4.13034 28.5215 4.25887 28.4853C4.3874 28.4491 4.50737 28.3874 4.6117 28.3041C4.71604 28.2208 4.80262 28.1174 4.86634 28C7.22134 23.93 11.3838 21.5 16.0001 21.5C20.6163 21.5 24.7788 23.93 27.1338 28C27.1976 28.1174 27.2842 28.2208 27.3885 28.3041C27.4928 28.3874 27.6128 28.4491 27.7413 28.4853C27.8698 28.5215 28.0043 28.5316 28.1368 28.5151C28.2693 28.4985 28.3972 28.4555 28.5128 28.3887C28.6284 28.3219 28.7295 28.2327 28.8101 28.1262C28.8907 28.0197 28.9491 27.8981 28.9819 27.7687C29.0148 27.6392 29.0213 27.5045 29.0013 27.3725C28.9812 27.2405 28.9349 27.1138 28.8651 27ZM9.00009 12.5C9.00009 11.1155 9.41064 9.76215 10.1798 8.61101C10.949 7.45986 12.0422 6.56265 13.3213 6.03284C14.6004 5.50303 16.0079 5.3644 17.3657 5.6345C18.7236 5.9046 19.9709 6.57128 20.9498 7.55025C21.9288 8.52922 22.5955 9.7765 22.8656 11.1344C23.1357 12.4922 22.9971 13.8997 22.4673 15.1788C21.9374 16.4579 21.0402 17.5511 19.8891 18.3203C18.7379 19.0895 17.3846 19.5 16.0001 19.5C14.1442 19.498 12.3649 18.7599 11.0525 17.4476C9.74022 16.1352 9.00208 14.3559 9.00009 12.5Z" fill="black"/>
</g>
</svg>
